HIERARCHY
ROOT Hips
{
	OFFSET 0.00000 0.00000 0.00000
	CHANNELS 6 Xposition Yposition Zposition Zrotation Yrotation Xrotation 
	JOINT LHipJoint
	{
		OFFSET 0 0 0
		CHANNELS 3 Zrotation Yrotation Xrotation
		JOINT LeftHip
		{
			OFFSET 1.48831 -1.59570 0.95625
			CHANNELS 3 Zrotation Yrotation Xrotation
			JOINT LeftKnee
			{
				OFFSET 2.20856 -6.06797 0.00000
				CHANNELS 3 Zrotation Yrotation Xrotation
				JOINT LeftAnkle
				{
					OFFSET 2.62924 -7.22379 0.00000
					CHANNELS 3 Zrotation Yrotation Xrotation
					JOINT LeftToe
					{
						OFFSET 0.16802 -0.46163 2.41673
						CHANNELS 3 Zrotation Yrotation Xrotation
						End Site
						{
							OFFSET 0.00000 -0.00000 1.23760
						}
					}
				}
			}
		}
	}
	JOINT RHipJoint
	{
		OFFSET 0 0 0
		CHANNELS 3 Zrotation Yrotation Xrotation
		JOINT RightHip
		{
			OFFSET -1.56796 -1.59570 0.95625
			CHANNELS 3 Zrotation Yrotation Xrotation
			JOINT RightKnee
			{
				OFFSET -2.29239 -6.29829 0.00000
				CHANNELS 3 Zrotation Yrotation Xrotation
				JOINT RightAnkle
				{
					OFFSET -2.66963 -7.33475 0.00000
					CHANNELS 3 Zrotation Yrotation Xrotation
					JOINT RightToe
					{
						OFFSET -0.18185 -0.49964 2.34359
						CHANNELS 3 Zrotation Yrotation Xrotation
						End Site
						{
							OFFSET -0.00000 -0.00000 1.20477
						}
					}
				}
			}
		}
	}
	JOINT lowerback
	{
		OFFSET 0 0 0
		CHANNELS 3 Zrotation Yrotation Xrotation
		JOINT Chest
		{
			OFFSET 0.03505 2.15832 -0.34324
			CHANNELS 3 Zrotation Yrotation Xrotation
			JOINT Chest2
			{
				OFFSET -0.01089 2.17963 0.04689
				CHANNELS 3 Zrotation Yrotation Xrotation
				JOINT lowerneck
				{
					OFFSET 0 0 0
					CHANNELS 3 Zrotation Yrotation Xrotation
					JOINT Neck
					{
						OFFSET 0.04686 1.69404 0.22159
						CHANNELS 3 Zrotation Yrotation Xrotation
						JOINT Head
						{
							OFFSET 0.00265 1.69305 -0.01513
							CHANNELS 3 Zrotation Yrotation Xrotation
							End Site
							{
								OFFSET -0.00415 1.80215 -0.03034
							}
						}
					}
				}
				JOINT LeftCollar
				{
					OFFSET 0 0 0
					CHANNELS 3 Zrotation Yrotation Xrotation
					JOINT LeftShoulder
					{
						OFFSET 3.67184 1.11724 -0.19002
CHANNELS 3 Zrotation Xrotation Yrotation
						JOINT LeftElbow
						{
OFFSET 0 -5.177140 -0.000000
CHANNELS 3 Zrotation Xrotation Yrotation
							JOINT LeftWrist
							{
OFFSET 0 -3.436790 -0.000000
CHANNELS 3 Zrotation Xrotation Yrotation
								JOINT lhand
								{
									OFFSET 0 0 0
CHANNELS 3 Zrotation Xrotation Yrotation
									JOINT LFingers
									{
OFFSET 0 -0.573120 -0.000000
CHANNELS 3 Zrotation Xrotation Yrotation
										End Site
										{
OFFSET 0 -0.462060 -0.000000
										}
									}
								}
								JOINT LThumb
								{
OFFSET 0 0.000000 0.000000
CHANNELS 3 Zrotation Xrotation Yrotation
									End Site
									{
OFFSET 0 -0.469120 0.469120
									}
								}
							}
						}
					}
				}
				JOINT RightCollar
				{
					OFFSET 0 0 0
					CHANNELS 3 Zrotation Yrotation Xrotation
					JOINT RightShoulder
					{
						OFFSET -3.59596 0.95831 -0.26050
CHANNELS 3 Zrotation Xrotation Yrotation
						JOINT RightElbow
						{
OFFSET 0 -5.239080 -0.000000
CHANNELS 3 Zrotation Xrotation Yrotation
							JOINT RightWrist
							{
OFFSET 0 -3.464850 -0.000000
CHANNELS 3 Zrotation Xrotation Yrotation
								JOINT rhand
								{
									OFFSET 0 0 0
CHANNELS 3 Zrotation Xrotation Yrotation
									JOINT RFingers
									{
OFFSET 0 -0.608750 -0.000000
CHANNELS 3 Zrotation Xrotation Yrotation
										End Site
										{
OFFSET 0 -0.490790 -0.000000
										}
									}
								}
								JOINT RThumb
								{
OFFSET 0 0.000000 0.000000
CHANNELS 3 Zrotation Xrotation Yrotation
									End Site
									{
OFFSET 0 -0.498290 0.498290
									}
								}
							}
						}
					}
				}
			}
		}
	}
}
MOTION
Frames: 8
Frame Time: .0083333
10.3385 14.0055 -4.6899 -22.9773 -69.9002 60.9229 0.0000 0.0000 0.0000 -8.5253 -8.5777 -92.8122 15.5641 19.5215 76.9301 1.9272 6.2644 -29.0842 0.0020 -0.2912 -0.8002 0.0000 0.0000 0.0000 12.0703 16.6737 -89.4287 -15.5842 -19.5259 76.9904 -1.8994 -4.4156 -27.9208 -0.0608 1.5906 -4.3755 2.7178 -1.9560 34.9015 -0.1112 -3.9166 20.8889 -0.5918 -2.4495 5.2576 0.9314 6.8847 1.0956 -0.1805 9.4612 -13.1660 -0.6149 4.6239 -4.4843 -0.0000 -0.0000 0.0000 105.8089 -59.1119 40.2836 21.9157 -32.8816 6.54 26.8539 -16.7582 -10.0357 0.0 0.0 0.0 -7.1250 0.0 0.0 -0.1399 41.1993 -0.0131 -0.0000 -0.0000 0.0000 -14.8123 -20.3283 33.2115 -56.2848 -55.2358 -31.2688 -25.926 -3.0274 8.7573 0.0 0.0 0.0 7.1250 0.0 -0.0 0.8551 39.6978 0.1118
10.3371 14.0060 -4.6887 -22.8338 -69.8788 60.8288 0.0000 0.0000 0.0000 -8.5449 -8.6354 -92.8378 15.5556 19.5197 76.9049 1.9229 6.2722 -29.0604 0.0021 -0.2967 -0.8152 0.0000 0.0000 0.0000 12.0158 16.6558 -89.4784 -15.5870 -19.5265 76.9988 -1.9010 -4.4469 -27.9472 -0.0605 1.5877 -4.3676 2.7467 -1.9437 34.9084 -0.0754 -3.8931 20.8904 -0.5753 -2.4374 5.2594 0.9048 6.8702 1.1101 -0.1311 9.4459 -13.1822 -0.5949 4.6143 -4.4975 0.0000 0.0000 0.0000 105.9798 -59.0596 40.3734 21.9228 -32.8896 6.5438 26.7072 -16.8577 -10.0944 0.0 0.0 0.0 -7.1250 0.0 0.0 -0.2754 41.2503 -0.0255 0.0000 0.0000 0.0000 -14.8572 -20.2709 33.1098 -56.3502 -55.2562 -31.3225 -25.9992 -3.0536 8.7478 0.0 0.0 0.0 7.1250 0.0 -0.0 0.7903 39.6934 0.1034
10.3356 14.0071 -4.6871 -22.6715 -69.8635 60.7047 0.0000 0.0000 0.0000 -8.5820 -8.6933 -92.8434 15.5449 19.5173 76.8727 1.9182 6.2836 -29.0358 0.0023 -0.3075 -0.8449 0.0000 0.0000 0.0000 11.9557 16.6300 -89.5120 -15.5891 -19.5270 77.0051 -1.9029 -4.4765 -27.9744 -0.0603 1.5846 -4.3589 2.7743 -1.9293 34.9348 -0.0372 -3.8675 20.8916 -0.5551 -2.4249 5.2544 0.8807 6.8566 1.1318 -0.0906 9.4316 -13.2169 -0.5791 4.6053 -4.5183 -0.0000 -0.0000 0.0000 106.1616 -59.0018 40.4816 21.9313 -32.8993 6.5485 26.5288 -16.9064 -10.1511 0.0 0.0 0.0 -7.1250 0.0 0.0 -0.4392 41.2957 -0.0401 -0.0000 -0.0000 0.0000 -14.9106 -20.213 33.0104 -56.4022 -55.2724 -31.3653 -26.0538 -3.0818 8.7402 0.0 0.0 0.0 7.1250 0.0 -0.0 0.7420 39.6897 0.0971
10.3343 14.0089 -4.6851 -22.4856 -69.8546 60.5483 0.0000 0.0000 0.0000 -8.6375 -8.7530 -92.8305 15.5321 19.5145 76.8343 1.9151 6.2840 -29.0161 0.0023 -0.3108 -0.8539 0.0000 0.0000 0.0000 11.8904 16.5919 -89.5344 -15.5908 -19.5274 77.0100 -1.9043 -4.5033 -27.9974 -0.0602 1.5827 -4.3538 2.8019 -1.9143 34.9763 0.0017 -3.8412 20.8931 -0.5339 -2.4123 5.2448 0.8578 6.8444 1.1578 -0.0552 9.4193 -13.2688 -0.5660 4.5971 -4.5460 0.0000 0.0000 0.0000 106.3604 -58.943 40.6226 21.9367 -32.9054 6.5514 26.344 -16.9103 -10.1787 0.0 0.0 0.0 -7.1250 0.0 0.0 -0.6062 41.3083 -0.0552 0.0000 0.0000 0.0000 -14.9717 -20.1561 32.9136 -56.4412 -55.2845 -31.3974 -26.0864 -3.1084 8.7395 0.0 0.0 0.0 7.1250 0.0 -0.0 0.7135 39.6916 0.0934
10.3330 14.0109 -4.6829 -22.2908 -69.8514 60.3757 0.0000 0.0000 0.0000 -8.7050 -8.8115 -92.8042 15.5181 19.5114 76.7926 1.9128 6.2827 -29.0004 0.0024 -0.3142 -0.8633 0.0000 0.0000 0.0000 11.8239 16.5458 -89.5482 -15.5924 -19.5277 77.0148 -1.9057 -4.5236 -28.0165 -0.0601 1.5816 -4.3508 2.8289 -1.8974 35.0304 0.0410 -3.8126 20.8938 -0.5119 -2.3989 5.2301 0.8330 6.8341 1.1864 -0.0205 9.4097 -13.3326 -0.5533 4.5901 -4.5786 0.0000 0.0000 0.0000 106.5677 -58.8956 40.8111 21.9328 -32.901 6.5493 26.1841 -16.8542 -10.1712 0.0 0.0 0.0 -7.1250 0.0 0.0 -0.7479 41.2844 -0.0685 0.0000 0.0000 0.0000 -15.036 -20.0983 32.8209 -56.4701 -55.2935 -31.4211 -26.0921 -3.1334 8.746 0.0 0.0 0.0 7.1250 0.0 -0.0 0.7090 39.6992 0.0926
10.3317 14.0127 -4.6807 -22.1035 -69.8581 60.2106 0.0000 0.0000 0.0000 -8.7763 -8.8651 -92.7783 15.5056 19.5086 76.7551 1.9118 6.2787 -28.9915 0.0024 -0.3144 -0.8637 0.0000 0.0000 0.0000 11.7537 16.5019 -89.5644 -15.5953 -19.5283 77.0236 -1.9067 -4.5392 -28.0309 -0.0602 1.5829 -4.3542 2.8485 -1.8742 35.0829 0.0796 -3.7785 20.8930 -0.4883 -2.3834 5.2146 0.8057 6.8260 1.2200 0.0159 9.4037 -13.4040 -0.5403 4.5847 -4.6153 -0.0000 0.0000 0.0000 106.7908 -58.8632 41.0584 21.9123 -32.8778 6.5382 26.0728 -16.7456 -10.1296 0.0 0.0 0.0 -7.1250 0.0 0.0 -0.8431 41.2277 -0.0785 -0.0000 0.0000 0.0000 -15.1014 -20.0369 32.7357 -56.4906 -55.2998 -31.4379 -26.0988 -3.1535 8.7546 0.0 0.0 0.0 7.1250 0.0 -0.0 0.7038 39.7093 0.0918
10.3302 14.0134 -4.6789 -21.9503 -69.8760 60.0900 0.0000 0.0000 0.0000 -8.8380 -8.9082 -92.7739 15.4971 19.5068 76.7297 1.9122 6.2699 -28.9889 0.0023 -0.3077 -0.8454 0.0000 0.0000 0.0000 11.6777 16.4760 -89.5998 -15.6008 -19.5295 77.0401 -1.9074 -4.5525 -28.0429 -0.0603 1.5851 -4.3603 2.8559 -1.8391 35.1161 0.1189 -3.7334 20.8898 -0.4614 -2.3635 5.2033 0.7772 6.8214 1.2538 0.0538 9.4024 -13.4701 -0.5265 4.5818 -4.6503 -0.0000 0.0000 0.0000 107.0164 -58.8506 41.3514 21.8746 -32.8351 6.5177 26.0438 -16.5961 -10.0499 0.0 0.0 0.0 -7.1250 0.0 0.0 -0.8615 41.1369 -0.0821 -0.0000 0.0000 0.0000 -15.1645 -19.9722 32.6574 -56.4980 -55.3021 -31.444 -26.0977 -3.1678 8.7649 0.0 0.0 0.0 7.1250 0.0 -0.0 0.7056 39.7206 0.0918
10.3285 14.0125 -4.6778 -21.8287 -69.9074 60.0221 0.0000 0.0000 0.0000 -8.8891 -8.9425 -92.8065 15.4945 19.5062 76.7218 1.9130 6.2636 -28.9905 0.0022 -0.3020 -0.8298 0.0000 0.0000 0.0000 11.5895 16.4718 -89.6688 -15.6102 -19.5316 77.0680 -1.9079 -4.5661 -28.0530 -0.0606 1.5886 -4.3699 2.8471 -1.7914 35.1123 0.1578 -3.6775 20.8840 -0.4307 -2.3393 5.2020 0.7508 6.8205 1.2899 0.0884 9.4059 -13.5267 -0.5142 4.5814 -4.6820 -0.0000 -0.0000 0.0000 107.2379 -58.8561 41.6794 21.8239 -32.7774 6.4902 26.0981 -16.4131 -9.9561 0.0 0.0 0.0 -7.1250 0.0 0.0 -0.8048 41.0383 -0.0786 -0.0000 -0.0000 0.0000 -15.2253 -19.9068 32.589 -56.4855 -55.2983 -31.4338 -26.0963 -3.1768 8.7744 0.0 0.0 0.0 7.1250 0.0 -0.0 0.7075 39.731 0.0919
